# This file uses centimeters as units for non-parametric coordinates.

mtllib Guy1.mtl
g default
v 20.888317 152.678202 8.366710
v 15.370591 96.761747 8.396591
v 21.330566 152.511699 -5.977493
v 16.108814 96.594871 -8.672966
v 0.183481 158.725946 14.755031
v -0.007341 97.334496 14.466219
v -0.007590 158.917622 -14.008706
v -0.003734 97.310019 -14.168778
v 21.831153 157.753875 1.179269
v 19.237394 99.905048 -0.023974
v -0.004035 88.591075 -12.568773
v 4.134398 162.675701 4.195682
v 21.743807 143.241996 8.534215
v 9.247180 110.996801 12.083631
v 12.974365 110.674844 -9.226119
v 22.195819 143.061686 -5.766945
v -0.043455 110.597364 -12.408777
v -0.339637 133.779758 -16.547968
v -0.047767 111.095758 14.980102
v -0.068894 133.685635 19.026190
v 16.609958 110.487079 1.593665
v 20.418953 133.924872 3.023644
v 10.452387 87.829442 -8.909370
v 9.725561 88.570098 8.051375
v -0.009826 88.456156 10.399562
v 7.267877 84.509912 -0.667567
v -0.003116 82.349833 -0.854253
v -0.000737 162.787365 -6.855302
v 6.030229 162.708645 -0.412867
v 0.006788 162.667500 6.111456
v 4.153645 162.765293 -4.970120
v 0.000000 164.893353 -6.830634
v 4.152698 164.871990 -4.942802
v 6.046239 164.830149 -0.357156
v 4.149487 164.789460 4.236411
v 0.000000 164.774994 6.141633
v 9.018722 161.130856 8.494788
v 0.049474 161.116821 11.522343
v 13.038095 161.209476 0.517256
v -0.014636 161.318609 -11.121607
v 9.182207 161.283374 -8.142615
v 14.998148 4.038069 4.577914
v 13.101973 3.691339 -2.685284
v 15.786193 3.157453 -0.068927
v 9.431523 3.492939 -1.531596
v 11.335902 3.813858 5.720126
v 8.548913 3.510395 3.097187
v 14.596707 133.849682 -12.260407
v 13.075283 158.969992 -10.536369
v 17.607936 158.977295 0.644272
v 12.387213 158.790074 11.490718
v 13.862031 133.743030 14.994087
v 22.448196 139.039665 1.664425
v 17.892280 76.100320 -7.262756
v 20.379629 76.326907 -0.933300
v 16.404262 76.512741 4.740447
v 9.776038 74.934459 5.294272
v 7.151722 73.928002 -2.383976
v 11.260589 74.521455 -8.033941
v 15.875010 51.650921 -5.205195
v 15.600595 51.897299 4.740713
v 18.393596 51.691386 -0.118670
v 10.003401 50.838579 5.100142
v 7.261088 50.107962 0.508965
v 10.282978 50.524817 -5.049417
v 15.462124 -0.437995 3.286058
v 13.266565 -0.646560 -2.844400
v 16.383369 -0.850460 0.125990
v 8.991192 -0.461050 -1.633640
v 11.189733 -0.596075 4.547576
v 7.952672 -0.971427 1.505464
v 13.456160 7.291579 -4.382854
v 15.360732 6.848798 3.144085
v 16.491700 6.737919 -1.084893
v 11.001094 6.515274 4.704825
v 7.837682 6.577573 1.695779
v 9.050580 6.979517 -2.976480
v 15.739756 2.815732 7.790118
v 14.961675 2.851749 11.527047
v 8.493442 2.782608 9.980823
v 11.285766 2.632088 12.612113
v 16.318379 -1.189130 7.903010
v 15.403983 -1.238771 11.071502
v 7.889171 -1.313501 9.281159
v 11.133321 -1.400673 12.331348
v 15.760006 3.603692 3.690482
v 8.527178 3.637286 5.816668
v 11.324204 3.521685 8.127178
v 15.004111 3.803197 6.524441
v 87.110529 145.860148 2.242502
v 86.003943 155.439556 2.095512
v 86.523309 148.201627 -1.996893
v 85.977435 152.987667 -1.751149
v 86.601225 153.100445 6.257116
v 87.224035 148.321821 5.950322
v 27.328428 144.322542 8.226872
v 27.874621 140.933550 2.735213
v 26.536589 150.977194 7.795503
v 26.886711 150.860847 -3.490636
v 26.322325 155.412979 2.093293
v 27.604406 144.194008 -3.116907
v 52.381345 146.068340 6.009149
v 51.649077 151.786737 5.895894
v 51.525519 151.683932 -4.045815
v 52.569084 143.128181 1.056334
v 51.253921 154.620155 0.900439
v 52.088111 145.948905 -3.963230
v 90.826464 148.481072 1.059045
v 90.194347 153.952511 0.947171
v 90.441493 149.816232 -1.301235
v 90.122220 152.551920 -1.310975
v 90.576729 152.617073 3.390545
v 90.901217 149.881587 3.356491
v 91.141745 150.113433 0.791907
v 90.870849 152.433864 0.786908
v 90.972673 150.679790 -0.206150
v 90.836874 151.839879 -0.201243
v 91.039535 151.867596 1.794649
v 91.174638 150.707368 1.801604
v 0.470367 88.511988 -12.899056
v 0.871987 97.331262 -14.383814
v 0.639303 92.867229 -13.550875
v -20.869787 152.683745 8.377412
v -15.370571 96.760868 8.402543
v -21.340286 152.516483 -5.970725
v -16.109043 96.596340 -8.666155
v -21.819706 157.762747 1.195428
v -19.243449 99.921577 0.191573
v -4.127728 162.670829 4.187133
v -21.743494 143.242123 8.533853
v -9.106309 111.047007 12.175311
v -12.977701 110.678413 -9.218834
v -22.191508 143.060053 -5.773689
v -16.601549 110.485662 1.602543
v -20.413413 133.922999 3.020470
v -10.452490 87.821165 -8.894428
v -9.735999 88.574205 8.053242
v -7.268916 84.509685 -0.659569
v -6.023967 162.701596 -0.425343
v -4.153483 162.762496 -4.975164
v -4.152135 164.869535 -4.947036
v -6.043074 164.827251 -0.362266
v -4.147140 164.787929 4.233736
v -8.994998 161.123073 8.481656
v -13.022655 161.204552 0.508967
v -9.186672 161.278464 -8.151638
v -14.996107 4.040532 4.580155
v -13.101069 3.689713 -2.679853
v -15.783453 3.157064 -0.065590
v -9.433134 3.492576 -1.528725
v -11.336364 3.813950 5.722870
v -8.551120 3.507956 3.099168
v -14.592682 133.849733 -12.260145
v -13.086360 158.967588 -10.540944
v -17.593272 158.979965 0.649629
v -12.354841 158.784961 11.482740
v -13.864067 133.743701 14.995212
v -22.443898 139.037399 1.657410
v -17.898050 76.099516 -7.256162
v -20.387832 76.327008 -0.938811
v -16.410859 76.512109 4.745010
v -9.782914 74.936105 5.304856
v -7.151419 73.926154 -2.377550
v -11.263355 74.515254 -8.027715
v -15.889574 51.648485 -5.234927
v -15.607135 51.896132 4.720690
v -18.407795 51.690956 -0.161721
v -10.006378 50.839816 5.097027
v -7.256404 50.106156 0.531564
v -10.285219 50.520527 -5.045495
v -15.461898 -0.437435 3.288182
v -13.266661 -0.646678 -2.842977
v -16.381959 -0.850615 0.132389
v -8.993345 -0.460884 -1.639078
v -11.191041 -0.596853 4.546219
v -7.955538 -0.973234 1.499987
v -13.456137 7.287520 -4.377489
v -15.357187 6.852135 3.126925
v -16.489419 6.736604 -1.095526
v -11.001483 6.515495 4.711873
v -7.839839 6.573997 1.710601
v -9.050556 6.977337 -2.955481
v -15.739084 2.817437 7.792460
v -14.961911 2.852410 11.527786
v -8.494133 2.782145 9.981053
v -11.286311 2.632127 12.612530
v -16.317559 -1.187388 7.906238
v -15.404136 -1.237886 11.072707
v -7.891118 -1.315716 9.279552
v -11.134224 -1.401008 12.331434
v -15.758310 3.605420 3.694826
v -8.528098 3.636296 5.816332
v -11.324601 3.521771 8.127631
v -15.003636 3.804501 6.526353
v -87.110124 145.860060 2.247747
v -86.003690 155.439898 2.099225
v -86.523771 148.201120 -1.985741
v -85.978030 152.986882 -1.738925
v -86.601118 153.100925 6.258103
v -87.223921 148.321859 5.950981
v -27.328394 144.322467 8.226648
v -27.873368 140.932500 2.729406
v -26.532497 150.980750 7.801589
v -26.887515 150.860556 -3.498829
v -26.319125 155.418623 2.100802
v -27.602270 144.191451 -3.131720
v -52.380934 146.068783 6.009833
v -51.648162 151.790103 5.902019
v -51.528016 151.680287 -4.051914
v -52.568768 143.126662 1.054130
v -51.254041 154.621420 0.902598
v -52.090902 145.946361 -3.966992
v -90.826363 148.481097 1.061027
v -90.194397 153.952448 0.947131
v -90.441500 149.816257 -1.296871
v -90.122252 152.551831 -1.308256
v -90.576793 152.617111 3.390296
v -90.901281 149.881625 3.356170
v -91.141815 150.113458 0.791320
v -90.870931 152.433890 0.786265
v -90.972717 150.679815 -0.206312
v -90.836912 151.839917 -0.201253
v -91.039643 151.867634 1.793870
v -91.174727 150.707405 1.800941
v -0.481241 88.500629 -12.888338
v -0.874696 97.328269 -14.383065
v -0.650490 92.859712 -13.546698
v -10.657729 169.345211 -8.975409
v -10.657729 194.330253 -8.477488
v 10.762197 169.345211 -8.975409
v 10.762197 194.330253 -8.477488
v -10.657729 168.990399 8.829662
v -10.657729 193.975328 9.327583
v 10.762197 168.990399 8.829662
v 10.762197 193.975328 9.327583
v 0.052234 166.646554 -10.980787
v -13.004644 181.876586 -10.677256
v 0.052234 197.106618 -10.373833
v 13.109112 181.876586 -10.677256
v 13.109112 166.430288 -0.127390
v 13.109112 196.890352 0.479564
v 13.109112 181.444066 11.029538
v 0.052234 166.213921 10.726007
v 0.052234 196.674086 11.333068
v -13.004644 181.444066 11.029538
v -13.004644 166.430288 -0.127390
v -13.004644 196.890352 0.479564
v 0.052234 181.958230 -14.771355
v 18.034385 181.660333 0.176140
v 0.052234 181.362422 15.123634
v -17.929916 181.660333 0.176140
v 0.052234 160.685301 -0.241944
v 0.052234 202.635339 0.594118
vt 0.805333 0.268920
vt 0.805562 0.307416
vt 0.763928 0.316682
vt 0.766108 0.271627
vt 0.766043 0.269039
vt 0.873882 0.268046
vt 0.874088 0.312211
vt 0.738009 0.299956
vt 0.740028 0.270440
vt 0.752906 0.270940
vt 0.766097 0.266462
vt 0.763936 0.221419
vt 0.805573 0.230673
vt 0.948216 0.269027
vt 0.948368 0.307714
vt 0.874092 0.225901
vt 0.703327 0.321958
vt 0.698658 0.302346
vt 0.740261 0.269039
vt 0.752883 0.267126
vt 0.739994 0.267630
vt 0.737986 0.238141
vt 0.955313 0.269004
vt 0.955210 0.296203
vt 0.901329 0.334683
vt 0.929271 0.332125
vt 0.948361 0.230353
vt 0.631032 0.315991
vt 0.627703 0.299456
vt 0.698643 0.235743
vt 0.703327 0.216127
vt 0.955195 0.241886
vt 0.924392 0.348553
vt 0.904677 0.350676
vt 0.901325 0.203429
vt 0.929287 0.205949
vt 0.499863 0.308840
vt 0.498942 0.295813
vt 0.626470 0.290522
vt 0.696906 0.290197
vt 0.627688 0.238637
vt 0.631025 0.222068
vt 0.944772 0.333602
vt 0.937850 0.346885
vt 0.926824 0.421409
vt 0.909865 0.423074
vt 0.904669 0.187432
vt 0.924388 0.189547
vt 0.631151 0.323439
vt 0.498229 0.317816
vt 0.489218 0.307794
vt 0.488630 0.296940
vt 0.696898 0.247903
vt 0.626466 0.247594
vt 0.498935 0.242287
vt 0.499851 0.229261
vt 0.935506 0.420604
vt 0.930680 0.523281
vt 0.916527 0.524896
vt 0.909858 0.115019
vt 0.926813 0.116684
vt 0.944799 0.204529
vt 0.937869 0.191227
vt 0.487638 0.315731
vt 0.476390 0.308279
vt 0.476940 0.295638
vt 0.488630 0.241157
vt 0.489215 0.230311
vt 0.631151 0.214619
vt 0.498225 0.220292
vt 0.937930 0.523361
vt 0.929390 0.535536
vt 0.921304 0.536483
vt 0.916527 0.013205
vt 0.930676 0.014818
vt 0.935510 0.117497
vt 0.475791 0.317495
vt 0.476940 0.242455
vt 0.476390 0.229822
vt 0.487638 0.222381
vt 0.933532 0.535750
vt 0.921304 0.001619
vt 0.929390 0.002562
vt 0.937930 0.014741
vt 0.475787 0.220609
vt 0.933532 0.002351
vt 0.319836 0.243068
vt 0.320126 0.270549
vt 0.279428 0.270434
vt 0.277740 0.224964
vt 0.387091 0.229423
vt 0.386923 0.270617
vt 0.319981 0.297335
vt 0.277732 0.315859
vt 0.253176 0.270442
vt 0.253512 0.241655
vt 0.318324 0.221298
vt 0.287033 0.213525
vt 0.461157 0.233783
vt 0.460959 0.269869
vt 0.387091 0.311407
vt 0.387625 0.210036
vt 0.318324 0.319501
vt 0.287079 0.327313
vt 0.253527 0.299198
vt 0.213196 0.241503
vt 0.217869 0.221902
vt 0.468075 0.243740
vt 0.468029 0.270266
vt 0.461142 0.306940
vt 0.443076 0.208646
vt 0.415175 0.206119
vt 0.387625 0.330772
vt 0.217861 0.318936
vt 0.213203 0.299335
vt 0.141947 0.240831
vt 0.145077 0.224284
vt 0.468052 0.297006
vt 0.443099 0.332123
vt 0.415175 0.334704
vt 0.418374 0.189603
vt 0.438052 0.191947
vt 0.145070 0.316561
vt 0.141954 0.300000
vt 0.010880 0.237883
vt 0.011873 0.224994
vt 0.144467 0.216022
vt 0.217319 0.210150
vt 0.438067 0.348868
vt 0.418374 0.351220
vt 0.402752 0.204034
vt 0.408349 0.187984
vt 0.423536 0.115521
vt 0.440449 0.117690
vt 0.451170 0.192581
vt 0.458088 0.205859
vt 0.217319 0.330695
vt 0.144467 0.324839
vt 0.011880 0.315821
vt 0.010880 0.302939
vt 0.139786 0.248940
vt 0.011063 0.247237
vt 0.002893 0.236891
vt 0.003565 0.226063
vt 0.458118 0.334933
vt 0.451185 0.348234
vt 0.440449 0.423133
vt 0.423536 0.425301
vt 0.402744 0.336773
vt 0.408349 0.352831
vt 0.414839 0.114964
vt 0.430202 0.012493
vt 0.444328 0.014333
vt 0.448818 0.118858
vt 0.003565 0.314752
vt 0.002893 0.303932
vt 0.139786 0.291868
vt 0.011063 0.293593
vt 0.002000 0.245130
vt 0.448826 0.421965
vt 0.444328 0.526490
vt 0.430202 0.528330
vt 0.414839 0.425851
vt 0.422918 0.012829
vt 0.434814 0.001619
vt 0.442900 0.002581
vt 0.001992 0.295693
vt 0.442900 0.538241
vt 0.434814 0.539203
vt 0.422918 0.527994
vt 0.407646 0.673221
vt 0.413873 0.673221
vt 0.413808 0.685499
vt 0.407581 0.685503
vt 0.407574 0.660939
vt 0.413804 0.660943
vt 0.421238 0.660985
vt 0.427491 0.660939
vt 0.427446 0.673210
vt 0.421215 0.673187
vt 0.421223 0.685412
vt 0.427484 0.685473
vt 0.446779 0.673097
vt 0.434852 0.673548
vt 0.435333 0.660918
vt 0.447436 0.662224
vt 0.447222 0.681351
vt 0.435112 0.683138
vt 0.466273 0.670959
vt 0.466930 0.681825
vt 0.454835 0.683130
vt 0.454346 0.670509
vt 0.466716 0.662697
vt 0.454606 0.660918
vt 0.358604 0.551176
vt 0.365543 0.588232
vt 0.326937 0.588473
vt 0.326937 0.543197
vt 0.358604 0.625055
vt 0.326937 0.633264
vt 0.288327 0.588232
vt 0.295268 0.551176
vt 0.295268 0.625055
vt 0.204934 0.551405
vt 0.211875 0.588232
vt 0.173261 0.587988
vt 0.173261 0.543197
vt 0.204934 0.625284
vt 0.173261 0.633264
vt 0.134655 0.588232
vt 0.141596 0.551405
vt 0.141596 0.625284
vt 0.175378 0.670535
vt 0.153878 0.669982
vt 0.146608 0.644200
vt 0.175397 0.637255
vt 0.175380 0.705173
vt 0.173979 0.706150
vt 0.144463 0.694353
vt 0.204155 0.644196
vt 0.196863 0.669959
vt 0.206278 0.694309
vt 0.176790 0.706118
vt 0.586169 0.631670
vt 0.562582 0.643551
vt 0.559830 0.622827
vt 0.573459 0.617223
vt 0.595030 0.641627
vt 0.562956 0.657066
vt 0.536974 0.632151
vt 0.546354 0.617284
vt 0.595122 0.605143
vt 0.579121 0.605021
vt 0.564537 0.669550
vt 0.585791 0.666763
vt 0.529896 0.643658
vt 0.528164 0.604952
vt 0.540780 0.604998
vt 0.573433 0.592796
vt 0.586131 0.578403
vt 0.543377 0.668069
vt 0.536947 0.577830
vt 0.546339 0.592720
vt 0.559793 0.587184
vt 0.562555 0.566491
vt 0.595003 0.568469
vt 0.562972 0.552976
vt 0.529882 0.566300
vt 0.564587 0.540476
vt 0.585821 0.543286
vt 0.543396 0.541897
vt 0.215398 0.664018
vt 0.228032 0.660288
vt 0.237607 0.669283
vt 0.234533 0.678568
vt 0.221893 0.682145
vt 0.212676 0.673361
vt 0.215574 0.640997
vt 0.228200 0.637270
vt 0.237794 0.646292
vt 0.212867 0.650366
vt 0.279109 0.665397
vt 0.279040 0.657364
vt 0.287309 0.650522
vt 0.287348 0.657646
vt 0.278941 0.645047
vt 0.287195 0.637267
vt 0.298190 0.655272
vt 0.298175 0.661021
vt 0.298068 0.640474
vt 0.300428 0.663648
vt 0.300504 0.674766
vt 0.300367 0.651530
vt 0.522029 0.645002
vt 0.513553 0.656753
vt 0.506330 0.655623
vt 0.509724 0.643230
vt 0.520960 0.541645
vt 0.506189 0.540476
vt 0.801053 0.553423
vt 0.803109 0.541836
vt 0.810088 0.540698
vt 0.813589 0.551686
vt 0.816884 0.540476
vt 0.824554 0.551350
vt 0.795238 0.655245
vt 0.810080 0.653825
vt 0.797741 0.727643
vt 0.815043 0.726845
vt 0.789905 0.743636
vt 0.811878 0.742891
vt 0.268195 0.664007
vt 0.270914 0.673338
vt 0.261701 0.682138
vt 0.249068 0.678578
vt 0.245998 0.669295
vt 0.255566 0.660288
vt 0.268020 0.640989
vt 0.270723 0.650354
vt 0.245808 0.646292
vt 0.255398 0.637267
vt 0.329564 0.665381
vt 0.321325 0.657623
vt 0.321363 0.650515
vt 0.329625 0.657341
vt 0.310505 0.661006
vt 0.310482 0.655249
vt 0.321470 0.637251
vt 0.329732 0.645032
vt 0.308176 0.674735
vt 0.308252 0.663617
vt 0.310604 0.640458
vt 0.308306 0.651507
vt 0.500052 0.552228
vt 0.487754 0.553999
vt 0.484349 0.541607
vt 0.491572 0.540476
vt 0.498998 0.655585
vt 0.484215 0.656753
vt 0.760301 0.730701
vt 0.772820 0.732436
vt 0.769311 0.743424
vt 0.762338 0.742286
vt 0.754443 0.628886
vt 0.769288 0.630299
vt 0.783769 0.732772
vt 0.776095 0.743645
vt 0.756913 0.556473
vt 0.774244 0.557275
vt 0.749099 0.540475
vt 0.771075 0.541221
vt 0.007923 0.644204
vt 0.034087 0.637263
vt 0.033747 0.675873
vt 0.001994 0.675873
vt 0.060573 0.644204
vt 0.066178 0.675873
vt 0.034087 0.714479
vt 0.007923 0.707540
vt 0.060573 0.707540
vt 0.130606 0.707538
vt 0.104442 0.714479
vt 0.104782 0.675865
vt 0.136539 0.675865
vt 0.077958 0.707538
vt 0.072351 0.675865
vt 0.104442 0.637259
vt 0.130606 0.644200
vt 0.077958 0.644200
vt 0.926391 0.636763
vt 0.958383 0.637328
vt 0.953601 0.668619
vt 0.928025 0.678408
vt 0.917417 0.568240
vt 0.962613 0.568026
vt 0.950911 0.738333
vt 0.932196 0.739005
vt 0.958593 0.552892
vt 0.936619 0.540996
vt 0.978499 0.677904
vt 0.967690 0.737783
vt 0.953320 0.811177
vt 0.938280 0.811299
vt 0.978907 0.540476
vt 0.998008 0.568561
vt 0.386684 0.674681
vt 0.380408 0.674514
vt 0.380530 0.660937
vt 0.386791 0.661059
vt 0.386516 0.688151
vt 0.380286 0.688075
vt 0.637095 0.673689
vt 0.641337 0.681997
vt 0.627594 0.684608
vt 0.624590 0.674010
vt 0.641818 0.540476
vt 0.627447 0.541087
vt 0.704650 0.564999
vt 0.708924 0.554686
vt 0.722611 0.554740
vt 0.718465 0.563807
vt 0.708621 0.542996
vt 0.717904 0.541486
vt 0.698521 0.693759
vt 0.714956 0.692526
vt 0.740895 0.540475
vt 0.742964 0.552587
vt 0.730652 0.555114
vt 0.427925 0.654735
vt 0.430513 0.615385
vt 0.447220 0.613632
vt 0.452296 0.644919
vt 0.469923 0.616606
vt 0.478078 0.656927
vt 0.455774 0.543197
vt 0.469350 0.545358
vt 0.338738 0.671551
vt 0.337409 0.660449
vt 0.339746 0.648323
vt 0.351581 0.647987
vt 0.350588 0.670986
vt 0.339639 0.637267
vt 0.351734 0.638610
vt 0.480842 0.677094
vt 0.480052 0.672269
vt 0.483037 0.670512
vt 0.487638 0.672956
vt 0.473863 0.673154
vt 0.477102 0.670589
vt 0.480036 0.665412
vt 0.483018 0.667076
vt 0.487737 0.664862
vt 0.473834 0.665061
vt 0.477116 0.667168
vt 0.480514 0.660922
vt 0.839682 0.715025
vt 0.841316 0.673387
vt 0.867506 0.683218
vt 0.871679 0.714456
vt 0.845485 0.612779
vt 0.864166 0.613451
vt 0.830689 0.783544
vt 0.875871 0.783758
vt 0.851462 0.540476
vt 0.866462 0.540602
vt 0.891788 0.673872
vt 0.880972 0.613997
vt 0.871843 0.798880
vt 0.849868 0.810776
vt 0.892177 0.811315
vt 0.911282 0.783227
vt 0.394017 0.674718
vt 0.393929 0.661077
vt 0.400186 0.660939
vt 0.400304 0.674527
vt 0.394200 0.688172
vt 0.400431 0.688088
vt 0.613743 0.551403
vt 0.601257 0.551063
vt 0.604302 0.540476
vt 0.618038 0.543088
vt 0.618455 0.684596
vt 0.604017 0.683989
vt 0.654134 0.669230
vt 0.667932 0.670421
vt 0.672036 0.679492
vt 0.658353 0.679538
vt 0.647953 0.540476
vt 0.664446 0.541698
vt 0.667310 0.692732
vt 0.658027 0.691220
vt 0.680073 0.679110
vt 0.692385 0.681630
vt 0.690312 0.693756
vt 0.371676 0.545409
vt 0.396027 0.555213
vt 0.390947 0.586504
vt 0.374240 0.584764
vt 0.421789 0.543195
vt 0.413665 0.583511
vt 0.413050 0.654768
vt 0.399550 0.656936
vt 0.371844 0.695218
vt 0.359994 0.694630
vt 0.358997 0.671646
vt 0.370840 0.671982
vt 0.373169 0.684096
vt 0.370943 0.660937
vt 0.358848 0.662281
vt 0.502281 0.660739
vt 0.509066 0.664877
vt 0.504469 0.667321
vt 0.501483 0.665564
vt 0.509169 0.672967
vt 0.504446 0.670749
vt 0.501468 0.672425
vt 0.495308 0.664686
vt 0.498532 0.667241
vt 0.501945 0.676915
vt 0.498547 0.670669
vt 0.495274 0.672773
vt 0.223038 0.624637
vt 0.218006 0.587589
vt 0.250097 0.588230
vt 0.249202 0.633265
vt 0.224510 0.550754
vt 0.250994 0.543195
vt 0.282190 0.588872
vt 0.275688 0.625691
vt 0.277158 0.551808
vt 0.122018 0.550767
vt 0.128519 0.587594
vt 0.096427 0.588232
vt 0.095531 0.543197
vt 0.123487 0.624647
vt 0.097324 0.633267
vt 0.064336 0.588873
vt 0.069368 0.551817
vt 0.070839 0.625697
vn 0.286452 0.095253 -0.953348
vn 0.286452 0.095253 -0.953348
vn 0.286452 0.095253 -0.953348
vn 0.286452 0.095253 -0.953348
vn 0.286452 0.095253 -0.953348
vn 0.833959 0.182769 0.520681
vn 0.833959 0.182769 0.520681
vn 0.833959 0.182769 0.520681
vn 0.833959 0.182769 0.520681
vn 0.173126 -0.886158 0.429826
vn 0.173126 -0.886158 0.429826
vn 0.173126 -0.886158 0.429826
vn 0.173126 -0.886158 0.429826
vn 0.339208 -0.066125 0.938385
vn 0.339208 -0.066125 0.938385
vn 0.339208 -0.066125 0.938385
vn 0.339208 -0.066125 0.938385
vn 0.294669 -0.329340 0.897053
vn 0.294669 -0.329340 0.897053
vn 0.294669 -0.329340 0.897053
vn 0.294669 -0.329340 0.897053
vn 0.203372 0.973540 0.104210
vn 0.203372 0.973540 0.104210
vn 0.203372 0.973540 0.104210
vn 0.203372 0.973540 0.104210
vn 0.908000 0.227330 -0.351932
vn 0.908000 0.227330 -0.351932
vn 0.908000 0.227330 -0.351932
vn 0.908000 0.227330 -0.351932
vn -0.003367 -0.018869 0.999816
vn -0.003367 -0.018869 0.999816
vn -0.003367 -0.018869 0.999816
vn -0.003367 -0.018869 0.999816
vn 0.933187 -0.120390 -0.338628
vn 0.933187 -0.120390 -0.338628
vn 0.933187 -0.120390 -0.338628
vn 0.933187 -0.120390 -0.338628
vn 0.265020 0.154211 0.951832
vn 0.265020 0.154211 0.951831
vn 0.265020 0.154211 0.951831
vn 0.265020 0.154211 0.951831
vn 0.281253 -0.173326 0.943851
vn 0.281253 -0.173326 0.943851
vn 0.281253 -0.173326 0.943851
vn 0.281253 -0.173326 0.943851
vn 0.052276 -0.847124 0.528818
vn 0.052276 -0.847124 0.528818
vn 0.052276 -0.847124 0.528818
vn 0.052276 -0.847124 0.528818
vn 0.831452 -0.200357 0.518212
vn 0.831452 -0.200357 0.518212
vn 0.831452 -0.200357 0.518212
vn 0.831452 -0.200357 0.518212
vn 0.265518 0.087728 -0.960106
vn 0.265518 0.087728 -0.960106
vn 0.265518 0.087728 -0.960106
vn 0.265518 0.087728 -0.960106
vn 0.255815 -0.154978 -0.954222
vn 0.255815 -0.154978 -0.954222
vn 0.255815 -0.154978 -0.954222
vn 0.255815 -0.154978 -0.954222
vn 0.340947 -0.183884 -0.921923
vn 0.340947 -0.183884 -0.921923
vn 0.340947 -0.183884 -0.921923
vn 0.340947 -0.183884 -0.921923
vn 0.340947 -0.183884 -0.921923
vn 0.153059 -0.905865 -0.394945
vn 0.153059 -0.905865 -0.394945
vn 0.153059 -0.905865 -0.394945
vn 0.153059 -0.905865 -0.394945
vn 0.153059 -0.905865 -0.394945
vn 0.924487 -0.015462 0.380900
vn 0.924487 -0.015462 0.380900
vn 0.924487 -0.015462 0.380900
vn 0.924487 -0.015462 0.380900
vn 0.095719 0.961411 0.257926
vn 0.095719 0.961411 0.257926
vn 0.095719 0.961411 0.257926
vn 0.095719 0.961411 0.257926
vn 0.428183 0.885976 -0.178060
vn 0.428183 0.885976 -0.178060
vn 0.428183 0.885976 -0.178060
vn 0.428183 0.885976 -0.178060
vn 0.113177 0.947364 -0.299487
vn 0.113177 0.947364 -0.299487
vn 0.113177 0.947364 -0.299487
vn 0.113177 0.947364 -0.299487
vn 0.168563 0.793886 -0.584236
vn 0.168563 0.793886 -0.584236
vn 0.168563 0.793886 -0.584236
vn 0.168563 0.793886 -0.584236
vn 0.924494 0.004192 -0.381173
vn 0.924494 0.004192 -0.381173
vn 0.924494 0.004192 -0.381173
vn 0.924494 0.004192 -0.381173
vn 0.413559 0.011255 -0.910408
vn 0.413559 0.011255 -0.910408
vn 0.413559 0.011255 -0.910408
vn 0.413559 0.011255 -0.910408
vn 0.419112 -0.016073 0.907792
vn 0.419112 -0.016073 0.907792
vn 0.419112 -0.016073 0.907792
vn 0.419112 -0.016073 0.907792
vn 0.224077 0.970627 -0.087599
vn 0.224077 0.970627 -0.087599
vn 0.224077 0.970627 -0.087599
vn 0.224077 0.970627 -0.087599
vn 0.157345 0.826987 0.539755
vn 0.157345 0.826987 0.539755
vn 0.157345 0.826987 0.539755
vn 0.157345 0.826987 0.539755
vn 0.420911 0.880258 0.219043
vn 0.420911 0.880258 0.219043
vn 0.420911 0.880258 0.219043
vn 0.420911 0.880258 0.219043
vn 0.639444 -0.352557 -0.683239
vn 0.639444 -0.352557 -0.683239
vn 0.639444 -0.352557 -0.683239
vn 0.639444 -0.352557 -0.683239
vn 0.269584 0.389872 0.880525
vn 0.269584 0.389872 0.880525
vn 0.269584 0.389872 0.880525
vn 0.269584 0.389873 0.880525
vn 0.972546 -0.078568 0.219048
vn 0.972546 -0.078568 0.219048
vn 0.972546 -0.078568 0.219048
vn 0.972546 -0.078568 0.219048
vn -0.680562 0.174694 0.711559
vn -0.680563 0.174694 0.711559
vn -0.680562 0.174694 0.711559
vn -0.680563 0.174694 0.711559
vn -0.941371 -0.253540 -0.222570
vn -0.941371 -0.253540 -0.222570
vn -0.941371 -0.253540 -0.222570
vn -0.941371 -0.253540 -0.222570
vn -0.255248 -0.392736 -0.883520
vn -0.255248 -0.392736 -0.883520
vn -0.255248 -0.392736 -0.883520
vn -0.255248 -0.392736 -0.883520
vn 0.561488 0.074843 -0.824093
vn 0.561488 0.074843 -0.824093
vn 0.561488 0.074843 -0.824093
vn 0.561488 0.074843 -0.824093
vn 0.591730 0.717354 -0.367776
vn 0.591730 0.717353 -0.367776
vn 0.591731 0.717354 -0.367776
vn 0.591730 0.717354 -0.367776
vn 0.517614 0.757435 0.397954
vn 0.517614 0.757435 0.397954
vn 0.517614 0.757435 0.397954
vn 0.517614 0.757435 0.397954
vn 0.481623 0.124889 0.867434
vn 0.481623 0.124889 0.867434
vn 0.481623 0.124889 0.867434
vn 0.481623 0.124889 0.867434
vn 0.837694 -0.454398 -0.302970
vn 0.837694 -0.454398 -0.302970
vn 0.837694 -0.454398 -0.302970
vn 0.837694 -0.454398 -0.302970
vn 0.843395 -0.357273 0.401299
vn 0.843395 -0.357273 0.401299
vn 0.843395 -0.357273 0.401299
vn 0.843395 -0.357273 0.401299
vn 0.129188 -0.057035 -0.989978
vn 0.129188 -0.057035 -0.989978
vn 0.129188 -0.057035 -0.989978
vn 0.129188 -0.057035 -0.989978
vn -0.884289 -0.009182 -0.466850
vn -0.884289 -0.009182 -0.466850
vn -0.884289 -0.009182 -0.466850
vn -0.884289 -0.009182 -0.466850
vn -0.948816 -0.054880 0.311025
vn -0.948816 -0.054880 0.311025
vn -0.948816 -0.054880 0.311025
vn -0.948816 -0.054880 0.311025
vn 0.874453 -0.007114 0.485059
vn 0.874453 -0.007114 0.485059
vn 0.874453 -0.007114 0.485059
vn 0.874453 -0.007114 0.485059
vn 0.158756 -0.178701 0.971011
vn 0.158756 -0.178701 0.971011
vn 0.158756 -0.178701 0.971011
vn 0.158756 -0.178701 0.971011
vn 0.930243 0.057634 -0.362389
vn 0.930243 0.057634 -0.362389
vn 0.930243 0.057634 -0.362389
vn 0.930243 0.057634 -0.362389
vn 0.073757 -0.107745 -0.991439
vn 0.073757 -0.107745 -0.991439
vn 0.073757 -0.107745 -0.991439
vn 0.073757 -0.107745 -0.991439
vn -0.840535 -0.051033 -0.539349
vn -0.840535 -0.051033 -0.539349
vn -0.840535 -0.051033 -0.539349
vn -0.840535 -0.051033 -0.539349
vn -0.916905 0.016018 0.398785
vn -0.916905 0.016018 0.398785
vn -0.916905 0.016018 0.398785
vn -0.916905 0.016018 0.398785
vn 0.840003 -0.038625 0.541205
vn 0.840003 -0.038625 0.541205
vn 0.840003 -0.038625 0.541205
vn 0.840003 -0.038625 0.541205
vn 0.075536 -0.004862 0.997131
vn 0.075536 -0.004862 0.997131
vn 0.075536 -0.004862 0.997131
vn 0.075536 -0.004862 0.997131
vn 0.912279 -0.097679 -0.397751
vn 0.912279 -0.097679 -0.397751
vn 0.912279 -0.097679 -0.397751
vn 0.912279 -0.097679 -0.397751
vn -0.991207 0.132309 0.001615
vn -0.991207 0.132309 0.001615
vn -0.991207 0.132309 0.001615
vn -0.991207 0.132309 0.001615
vn -0.991207 0.132309 0.001615
vn 0.009331 -0.999953 0.002501
vn 0.009331 -0.999953 0.002501
vn 0.009331 -0.999953 0.002501
vn 0.009331 -0.999953 0.002501
vn 0.009331 -0.999953 0.002501
vn 0.009331 -0.999953 0.002501
vn -0.960049 0.163558 -0.227058
vn -0.960049 0.163558 -0.227058
vn -0.960049 0.163558 -0.227058
vn -0.960049 0.163558 -0.227058
vn -0.061623 0.997594 0.031761
vn -0.061623 0.997594 0.031761
vn -0.061623 0.997594 0.031761
vn -0.061623 0.997594 0.031761
vn -0.285046 0.039642 -0.957694
vn -0.285046 0.039642 -0.957694
vn -0.285046 0.039642 -0.957694
vn -0.285046 0.039642 -0.957694
vn 0.990631 0.135958 0.012890
vn 0.990631 0.135958 0.012890
vn 0.990631 0.135958 0.012890
vn 0.990631 0.135958 0.012890
vn 0.990631 0.135958 0.012890
vn 0.696389 0.060496 -0.715110
vn 0.696389 0.060496 -0.715110
vn 0.696389 0.060496 -0.715110
vn 0.696389 0.060496 -0.715110
vn -0.150633 -0.026292 -0.988240
vn -0.150633 -0.026292 -0.988240
vn -0.150633 -0.026292 -0.988240
vn -0.150633 -0.026292 -0.988240
vn -0.923737 -0.007379 -0.382955
vn -0.923737 -0.007379 -0.382955
vn -0.923738 -0.007379 -0.382955
vn -0.923738 -0.007379 -0.382955
vn -0.789236 -0.008611 0.614030
vn -0.789236 -0.008611 0.614030
vn -0.789236 -0.008611 0.614030
vn -0.789236 -0.008611 0.614030
vn 0.917158 -0.033134 0.397145
vn 0.917158 -0.033134 0.397145
vn 0.917158 -0.033134 0.397145
vn 0.917158 -0.033134 0.397145
vn 0.192049 -0.020240 0.981176
vn 0.192049 -0.020240 0.981177
vn 0.192049 -0.020240 0.981176
vn 0.192049 -0.020240 0.981176
vn 0.831921 -0.039355 -0.553497
vn 0.831921 -0.039355 -0.553497
vn 0.831921 -0.039355 -0.553497
vn 0.831921 -0.039355 -0.553497
vn 0.285566 -0.076401 0.955309
vn 0.285566 -0.076401 0.955309
vn 0.285566 -0.076401 0.955309
vn 0.285566 -0.076401 0.955309
vn 0.965125 0.111693 0.236767
vn 0.965125 0.111693 0.236767
vn 0.965125 0.111693 0.236767
vn 0.965125 0.111693 0.236767
vn -0.685674 -0.023917 0.727516
vn -0.685674 -0.023917 0.727516
vn -0.685674 -0.023917 0.727516
vn -0.685674 -0.023917 0.727516
vn 0.007001 -0.994707 -0.102515
vn 0.007001 -0.994707 -0.102515
vn 0.007001 -0.994707 -0.102515
vn 0.007001 -0.994707 -0.102515
vn -0.023453 0.992482 0.120119
vn -0.023453 0.992482 0.120119
vn -0.023453 0.992482 0.120119
vn -0.023453 0.992482 0.120119
vn -0.418910 -0.905356 -0.069603
vn -0.418909 -0.905356 -0.069603
vn -0.418909 -0.905356 -0.069603
vn -0.418909 -0.905356 -0.069603
vn 0.467509 0.883442 -0.031068
vn 0.467509 0.883442 -0.031068
vn 0.467509 0.883442 -0.031068
vn 0.467509 0.883442 -0.031068
vn 0.111914 -0.991093 -0.072177
vn 0.111914 -0.991093 -0.072177
vn 0.111914 -0.991093 -0.072177
vn 0.111914 -0.991093 -0.072177
vn -0.126187 0.972632 0.195099
vn -0.126187 0.972632 0.195099
vn -0.126187 0.972632 0.195099
vn -0.126187 0.972632 0.195099
vn 0.002730 0.981680 0.190517
vn 0.002730 0.981680 0.190517
vn 0.002730 0.981680 0.190517
vn 0.002730 0.981680 0.190517
vn 0.700869 0.699707 0.138538
vn 0.700869 0.699707 0.138538
vn 0.700869 0.699707 0.138538
vn 0.700869 0.699707 0.138538
vn 0.396351 0.826018 0.400750
vn 0.396351 0.826018 0.400750
vn 0.396351 0.826018 0.400750
vn 0.396351 0.826018 0.400750
vn 0.398623 -0.774960 -0.490445
vn 0.398623 -0.774960 -0.490445
vn 0.398623 -0.774960 -0.490445
vn 0.398623 -0.774960 -0.490445
vn 0.000188 0.852651 -0.522481
vn 0.000188 0.852651 -0.522481
vn 0.000188 0.852651 -0.522481
vn 0.000188 0.852651 -0.522481
vn 0.085103 -0.866045 -0.492670
vn 0.085103 -0.866045 -0.492670
vn 0.085103 -0.866045 -0.492670
vn 0.085103 -0.866045 -0.492670
vn -0.037616 0.868325 0.494566
vn -0.037616 0.868325 0.494566
vn -0.037616 0.868325 0.494566
vn -0.037616 0.868325 0.494566
vn 0.060598 0.021860 -0.997923
vn 0.060598 0.021860 -0.997923
vn 0.060598 0.021860 -0.997923
vn 0.060598 0.021860 -0.997923
vn 0.424569 0.008879 -0.905352
vn 0.424569 0.008879 -0.905352
vn 0.424569 0.008879 -0.905352
vn 0.424569 0.008879 -0.905352
vn 0.284788 0.763563 0.579541
vn 0.284788 0.763563 0.579541
vn 0.284788 0.763563 0.579541
vn 0.284788 0.763563 0.579541
vn 0.381193 -0.804258 -0.455919
vn 0.381193 -0.804257 -0.455919
vn 0.381193 -0.804257 -0.455919
vn 0.381193 -0.804257 -0.455919
vn 0.462205 0.704160 -0.539003
vn 0.462205 0.704161 -0.539003
vn 0.462205 0.704160 -0.539003
vn 0.462205 0.704160 -0.539003
vn 0.187219 -0.828515 0.527742
vn 0.187219 -0.828515 0.527742
vn 0.187219 -0.828515 0.527742
vn 0.187219 -0.828515 0.527742
vn 0.080380 0.045289 0.995735
vn 0.080380 0.045289 0.995735
vn 0.080380 0.045289 0.995735
vn 0.080380 0.045289 0.995735
vn -0.026427 -0.039481 -0.998871
vn -0.026427 -0.039481 -0.998871
vn -0.026427 -0.039481 -0.998871
vn -0.026427 -0.039481 -0.998871
vn 0.034351 0.827534 0.560363
vn 0.034351 0.827534 0.560363
vn 0.034351 0.827534 0.560363
vn 0.034351 0.827534 0.560363
vn 0.044751 -0.870549 -0.490042
vn 0.044751 -0.870549 -0.490042
vn 0.044751 -0.870549 -0.490042
vn 0.044751 -0.870549 -0.490042
vn -0.020968 0.813981 -0.580513
vn -0.020968 0.813981 -0.580513
vn -0.020968 0.813981 -0.580513
vn -0.020968 0.813981 -0.580513
vn 0.107869 -0.846860 0.520761
vn 0.107869 -0.846860 0.520761
vn 0.107869 -0.846860 0.520761
vn 0.107869 -0.846860 0.520761
vn 0.078973 0.053544 0.995438
vn 0.078973 0.053544 0.995438
vn 0.078973 0.053544 0.995438
vn 0.078973 0.053544 0.995438
vn 0.980973 -0.178713 0.075850
vn 0.980973 -0.178713 0.075850
vn 0.980973 -0.178713 0.075850
vn 0.980973 -0.178713 0.075850
vn 0.863274 0.100228 -0.494684
vn 0.863274 0.100228 -0.494684
vn 0.863274 0.100228 -0.494684
vn 0.863274 0.100228 -0.494684
vn 0.132698 0.046328 -0.990073
vn 0.132698 0.046328 -0.990073
vn 0.132698 0.046328 -0.990073
vn 0.132698 0.046328 -0.990073
vn 0.599685 -0.681478 0.419482
vn 0.599685 -0.681478 0.419482
vn 0.599685 -0.681478 0.419482
vn 0.599685 -0.681478 0.419482
vn 0.577121 0.035748 0.815876
vn 0.577121 0.035748 0.815876
vn 0.577121 0.035748 0.815876
vn 0.577121 0.035748 0.815876
vn 0.147707 0.835333 -0.529529
vn 0.147707 0.835333 -0.529529
vn 0.147707 0.835333 -0.529529
vn 0.147707 0.835333 -0.529529
vn 0.988001 0.115443 -0.102604
vn 0.988001 0.115443 -0.102604
vn 0.988001 0.115443 -0.102604
vn 0.988001 0.115443 -0.102604
vn 0.988294 0.114935 -0.100329
vn 0.988294 0.114935 -0.100329
vn 0.988294 0.114935 -0.100329
vn 0.988294 0.114935 -0.100329
vn 0.966982 0.112488 0.228674
vn 0.966982 0.112488 0.228674
vn 0.966982 0.112488 0.228674
vn 0.966982 0.112488 0.228674
vn 0.863136 0.417181 -0.284529
vn 0.863136 0.417181 -0.284529
vn 0.863136 0.417181 -0.284529
vn 0.863136 0.417181 -0.284529
vn 0.933453 -0.223506 -0.280553
vn 0.933453 -0.223506 -0.280553
vn 0.933453 -0.223506 -0.280553
vn 0.933453 -0.223506 -0.280553
vn 0.913161 0.400647 0.074959
vn 0.913161 0.400647 0.074959
vn 0.913161 0.400647 0.074959
vn 0.913161 0.400647 0.074959
vn -0.579607 -0.098582 -0.808911
vn -0.579607 -0.098582 -0.808911
vn -0.579607 -0.098582 -0.808911
vn -0.288976 -0.172785 -0.941615
vn -0.288976 -0.172785 -0.941615
vn -0.288976 -0.172785 -0.941615
vn -0.231308 -0.166784 -0.958478
vn -0.231308 -0.166784 -0.958478
vn -0.231308 -0.166784 -0.958478
vn -0.287694 0.094487 -0.953050
vn -0.287694 0.094487 -0.953050
vn -0.287694 0.094487 -0.953050
vn -0.287694 0.094487 -0.953050
vn -0.287694 0.094487 -0.953050
vn -0.828753 0.186995 0.527448
vn -0.828753 0.186995 0.527448
vn -0.828753 0.186995 0.527448
vn -0.828753 0.186995 0.527448
vn -0.173227 -0.886098 0.429909
vn -0.173227 -0.886098 0.429909
vn -0.173227 -0.886098 0.429909
vn -0.173227 -0.886098 0.429909
vn -0.338999 -0.068183 0.938313
vn -0.338999 -0.068183 0.938313
vn -0.338999 -0.068183 0.938313
vn -0.338999 -0.068183 0.938313
vn -0.294703 -0.329388 0.897025
vn -0.294703 -0.329388 0.897025
vn -0.294703 -0.329388 0.897025
vn -0.294703 -0.329388 0.897025
vn -0.203702 0.973433 0.104567
vn -0.203702 0.973433 0.104567
vn -0.203702 0.973433 0.104567
vn -0.203702 0.973433 0.104567
vn -0.909898 0.225270 -0.348338
vn -0.909898 0.225270 -0.348338
vn -0.909898 0.225270 -0.348338
vn -0.909898 0.225270 -0.348338
vn 0.003267 -0.019399 0.999806
vn 0.003267 -0.019399 0.999807
vn 0.003267 -0.019399 0.999807
vn 0.003267 -0.019399 0.999806
vn -0.933314 -0.120451 -0.338256
vn -0.933314 -0.120451 -0.338256
vn -0.933314 -0.120451 -0.338256
vn -0.933314 -0.120451 -0.338256
vn -0.263278 0.157193 0.951827
vn -0.263278 0.157193 0.951827
vn -0.263278 0.157193 0.951827
vn -0.263278 0.157193 0.951827
vn -0.282316 -0.172856 0.943620
vn -0.282316 -0.172856 0.943620
vn -0.282316 -0.172856 0.943620
vn -0.282316 -0.172856 0.943620
vn -0.052219 -0.846989 0.529040
vn -0.052219 -0.846989 0.529040
vn -0.052219 -0.846989 0.529040
vn -0.052219 -0.846989 0.529040
vn -0.829779 -0.201928 0.520281
vn -0.829779 -0.201928 0.520281
vn -0.829779 -0.201928 0.520281
vn -0.829779 -0.201928 0.520281
vn -0.271474 0.091118 -0.958123
vn -0.271474 0.091118 -0.958123
vn -0.271474 0.091118 -0.958123
vn -0.271474 0.091118 -0.958123
vn -0.262673 -0.158273 -0.951816
vn -0.262673 -0.158273 -0.951816
vn -0.262673 -0.158273 -0.951816
vn -0.262673 -0.158273 -0.951816
vn -0.341500 -0.184620 -0.921571
vn -0.341500 -0.184620 -0.921571
vn -0.341500 -0.184620 -0.921571
vn -0.341500 -0.184620 -0.921571
vn -0.341500 -0.184620 -0.921571
vn -0.153139 -0.906072 -0.394440
vn -0.153139 -0.906072 -0.394440
vn -0.153139 -0.906072 -0.394440
vn -0.153139 -0.906072 -0.394440
vn -0.153139 -0.906072 -0.394440
vn -0.924559 -0.018233 0.380603
vn -0.924559 -0.018233 0.380603
vn -0.924559 -0.018233 0.380603
vn -0.924559 -0.018233 0.380603
vn -0.096772 0.961092 0.258722
vn -0.096772 0.961092 0.258722
vn -0.096772 0.961092 0.258722
vn -0.096772 0.961092 0.258722
vn -0.427663 0.886442 -0.176988
vn -0.427663 0.886442 -0.176988
vn -0.427663 0.886442 -0.176988
vn -0.427663 0.886442 -0.176988
vn -0.113447 0.947495 -0.298972
vn -0.113447 0.947495 -0.298972
vn -0.113447 0.947495 -0.298972
vn -0.113447 0.947495 -0.298972
vn -0.168720 0.793761 -0.584361
vn -0.168720 0.793761 -0.584361
vn -0.168720 0.793761 -0.584361
vn -0.168720 0.793761 -0.584361
vn -0.924683 0.004324 -0.380713
vn -0.924683 0.004324 -0.380713
vn -0.924683 0.004324 -0.380713
vn -0.924683 0.004324 -0.380713
vn -0.412814 0.011617 -0.910741
vn -0.412814 0.011617 -0.910741
vn -0.412814 0.011617 -0.910741
vn -0.412814 0.011617 -0.910741
vn -0.419906 -0.019095 0.907367
vn -0.419906 -0.019095 0.907366
vn -0.419906 -0.019095 0.907367
vn -0.419907 -0.019095 0.907366
vn -0.224282 0.970635 -0.086977
vn -0.224282 0.970635 -0.086977
vn -0.224282 0.970635 -0.086977
vn -0.224282 0.970635 -0.086977
vn -0.156679 0.824212 0.544175
vn -0.156679 0.824212 0.544175
vn -0.156679 0.824212 0.544175
vn -0.156679 0.824212 0.544175
vn -0.419650 0.880691 0.219720
vn -0.419650 0.880691 0.219720
vn -0.419650 0.880691 0.219720
vn -0.419650 0.880691 0.219720
vn -0.638118 -0.354141 -0.683659
vn -0.638118 -0.354141 -0.683659
vn -0.638118 -0.354141 -0.683659
vn -0.638118 -0.354141 -0.683659
vn -0.271640 0.391645 0.879105
vn -0.271640 0.391645 0.879105
vn -0.271640 0.391645 0.879105
vn -0.271640 0.391645 0.879105
vn -0.972614 -0.077208 0.219226
vn -0.972614 -0.077208 0.219226
vn -0.972614 -0.077208 0.219226
vn -0.972614 -0.077208 0.219226
vn 0.680623 0.172756 0.711974
vn 0.680623 0.172756 0.711974
vn 0.680623 0.172756 0.711974
vn 0.680623 0.172756 0.711974
vn 0.941552 -0.252873 -0.222566
vn 0.941552 -0.252873 -0.222566
vn 0.941552 -0.252873 -0.222566
vn 0.941552 -0.252873 -0.222566
vn 0.257118 -0.390878 -0.883802
vn 0.257118 -0.390877 -0.883802
vn 0.257118 -0.390878 -0.883802
vn 0.257118 -0.390878 -0.883802
vn -0.561706 0.074577 -0.823969
vn -0.561706 0.074577 -0.823969
vn -0.561706 0.074577 -0.823969
vn -0.561706 0.074577 -0.823969
vn -0.591507 0.718228 -0.366425
vn -0.591507 0.718228 -0.366425
vn -0.591507 0.718228 -0.366425
vn -0.591507 0.718228 -0.366425
vn -0.515653 0.758174 0.399091
vn -0.515653 0.758174 0.399091
vn -0.515653 0.758174 0.399091
vn -0.515653 0.758174 0.399091
vn -0.480476 0.125554 0.867974
vn -0.480476 0.125554 0.867974
vn -0.480476 0.125554 0.867974
vn -0.480476 0.125554 0.867974
vn -0.837548 -0.454635 -0.303018
vn -0.837548 -0.454635 -0.303018
vn -0.837548 -0.454635 -0.303018
vn -0.837548 -0.454635 -0.303018
vn -0.843561 -0.357492 0.400754
vn -0.843561 -0.357492 0.400754
vn -0.843561 -0.357492 0.400754
vn -0.843561 -0.357492 0.400754
vn -0.128418 -0.056808 -0.990092
vn -0.128418 -0.056808 -0.990092
vn -0.128418 -0.056808 -0.990092
vn -0.128418 -0.056808 -0.990092
vn 0.884162 -0.009018 -0.467093
vn 0.884162 -0.009018 -0.467093
vn 0.884162 -0.009018 -0.467093
vn 0.884162 -0.009018 -0.467093
vn 0.948529 -0.054753 0.311920
vn 0.948530 -0.054753 0.311920
vn 0.948529 -0.054753 0.311920
vn 0.948530 -0.054753 0.311920
vn -0.871544 -0.010106 0.490214
vn -0.871544 -0.010106 0.490214
vn -0.871544 -0.010106 0.490214
vn -0.871544 -0.010106 0.490214
vn -0.158761 -0.178473 0.971052
vn -0.158761 -0.178473 0.971052
vn -0.158761 -0.178473 0.971052
vn -0.158761 -0.178473 0.971052
vn -0.931367 0.059686 -0.359157
vn -0.931367 0.059686 -0.359157
vn -0.931367 0.059686 -0.359157
vn -0.931367 0.059686 -0.359157
vn -0.070837 -0.106795 -0.991755
vn -0.070837 -0.106795 -0.991755
vn -0.070837 -0.106795 -0.991754
vn -0.070837 -0.106795 -0.991754
vn 0.840617 -0.051087 -0.539216
vn 0.840617 -0.051087 -0.539216
vn 0.840617 -0.051087 -0.539216
vn 0.840617 -0.051087 -0.539216
vn 0.916254 0.016284 0.400266
vn 0.916254 0.016284 0.400266
vn 0.916254 0.016284 0.400266
vn 0.916254 0.016284 0.400266
vn -0.840412 -0.039239 0.540525
vn -0.840412 -0.039239 0.540525
vn -0.840412 -0.039239 0.540525
vn -0.840412 -0.039239 0.540525
vn -0.077546 -0.005675 0.996973
vn -0.077546 -0.005675 0.996973
vn -0.077546 -0.005675 0.996973
vn -0.077546 -0.005675 0.996973
vn -0.911971 -0.096828 -0.398664
vn -0.911971 -0.096828 -0.398664
vn -0.911971 -0.096828 -0.398664
vn -0.911971 -0.096828 -0.398664
vn 0.991241 0.132057 0.001412
vn 0.991241 0.132057 0.001412
vn 0.991241 0.132057 0.001412
vn 0.991241 0.132057 0.001412
vn 0.991241 0.132057 0.001412
vn -0.009498 -0.999952 0.002424
vn -0.009498 -0.999952 0.002424
vn -0.009498 -0.999952 0.002424
vn -0.009498 -0.999952 0.002424
vn -0.009498 -0.999952 0.002424
vn -0.009498 -0.999952 0.002424
vn 0.960059 0.163822 -0.226823
vn 0.960059 0.163822 -0.226823
vn 0.960059 0.163822 -0.226823
vn 0.960059 0.163822 -0.226823
vn 0.062060 0.997576 0.031489
vn 0.062060 0.997576 0.031489
vn 0.062060 0.997576 0.031489
vn 0.062060 0.997576 0.031489
vn 0.284132 0.040999 -0.957908
vn 0.284132 0.040999 -0.957908
vn 0.284132 0.040999 -0.957908
vn 0.284132 0.040999 -0.957908
vn -0.990618 0.136068 0.012688
vn -0.990618 0.136068 0.012688
vn -0.990618 0.136068 0.012688
vn -0.990618 0.136068 0.012688
vn -0.990618 0.136068 0.012688
vn -0.696781 0.060821 -0.714701
vn -0.696781 0.060821 -0.714701
vn -0.696781 0.060821 -0.714701
vn -0.696781 0.060821 -0.714701
vn 0.155150 -0.026638 -0.987532
vn 0.155150 -0.026638 -0.987532
vn 0.155150 -0.026638 -0.987532
vn 0.155150 -0.026638 -0.987532
vn 0.923749 -0.007467 -0.382926
vn 0.923749 -0.007467 -0.382926
vn 0.923749 -0.007467 -0.382926
vn 0.923749 -0.007467 -0.382926
vn 0.787618 -0.008584 0.616104
vn 0.787618 -0.008584 0.616104
vn 0.787618 -0.008584 0.616104
vn 0.787618 -0.008584 0.616104
vn -0.917082 -0.033253 0.397310
vn -0.917082 -0.033253 0.397310
vn -0.917082 -0.033253 0.397310
vn -0.917082 -0.033253 0.397310
vn -0.195936 -0.020076 0.980411
vn -0.195936 -0.020076 0.980411
vn -0.195936 -0.020076 0.980411
vn -0.195936 -0.020076 0.980411
vn -0.831114 -0.040021 -0.554660
vn -0.831114 -0.040021 -0.554660
vn -0.831114 -0.040021 -0.554660
vn -0.831114 -0.040021 -0.554660
vn -0.285457 -0.076381 0.955343
vn -0.285457 -0.076381 0.955343
vn -0.285457 -0.076381 0.955343
vn -0.285457 -0.076381 0.955343
vn -0.965147 0.111716 0.236664
vn -0.965147 0.111716 0.236664
vn -0.965147 0.111716 0.236664
vn -0.965147 0.111716 0.236664
vn 0.685862 -0.024201 0.727329
vn 0.685862 -0.024201 0.727329
vn 0.685862 -0.024201 0.727329
vn 0.685862 -0.024201 0.727329
vn -0.007373 -0.994710 -0.102460
vn -0.007373 -0.994710 -0.102460
vn -0.007373 -0.994710 -0.102460
vn -0.007373 -0.994710 -0.102460
vn 0.023835 0.992432 0.120459
vn 0.023835 0.992432 0.120459
vn 0.023835 0.992432 0.120459
vn 0.023835 0.992432 0.120459
vn 0.418669 -0.905478 -0.069472
vn 0.418669 -0.905478 -0.069472
vn 0.418669 -0.905478 -0.069472
vn 0.418669 -0.905478 -0.069472
vn -0.467746 0.883304 -0.031422
vn -0.467746 0.883304 -0.031422
vn -0.467746 0.883304 -0.031422
vn -0.467746 0.883304 -0.031422
vn -0.112424 -0.991039 -0.072133
vn -0.112424 -0.991039 -0.072133
vn -0.112424 -0.991039 -0.072133
vn -0.112424 -0.991039 -0.072133
vn 0.126447 0.972613 0.195026
vn 0.126447 0.972613 0.195026
vn 0.126447 0.972613 0.195026
vn 0.126447 0.972613 0.195026
vn -0.002472 0.981663 0.190607
vn -0.002472 0.981663 0.190607
vn -0.002472 0.981663 0.190607
vn -0.002472 0.981663 0.190607
vn -0.700764 0.699815 0.138524
vn -0.700764 0.699815 0.138524
vn -0.700764 0.699815 0.138524
vn -0.700764 0.699815 0.138524
vn -0.396632 0.825875 0.400767
vn -0.396632 0.825875 0.400767
vn -0.396632 0.825875 0.400767
vn -0.396632 0.825875 0.400767
vn -0.398034 -0.774986 -0.490882
vn -0.398034 -0.774986 -0.490882
vn -0.398034 -0.774986 -0.490882
vn -0.398034 -0.774986 -0.490882
vn -0.000344 0.852385 -0.522914
vn -0.000344 0.852385 -0.522914
vn -0.000344 0.852385 -0.522914
vn -0.000344 0.852385 -0.522914
vn -0.085308 -0.865994 -0.492724
vn -0.085308 -0.865994 -0.492724
vn -0.085308 -0.865994 -0.492724
vn -0.085308 -0.865994 -0.492724
vn 0.037542 0.868453 0.494347
vn 0.037542 0.868453 0.494347
vn 0.037542 0.868453 0.494347
vn 0.037542 0.868453 0.494347
vn -0.061083 0.021795 -0.997895
vn -0.061083 0.021795 -0.997895
vn -0.061083 0.021795 -0.997895
vn -0.061083 0.021795 -0.997895
vn -0.423245 0.009407 -0.905966
vn -0.423245 0.009407 -0.905966
vn -0.423245 0.009407 -0.905966
vn -0.423245 0.009407 -0.905966
vn -0.285098 0.763087 0.580014
vn -0.285098 0.763087 0.580014
vn -0.285098 0.763087 0.580014
vn -0.285098 0.763087 0.580014
vn -0.380764 -0.804561 -0.455742
vn -0.380764 -0.804561 -0.455742
vn -0.380764 -0.804561 -0.455742
vn -0.380764 -0.804561 -0.455742
vn -0.461668 0.705063 -0.538282
vn -0.461668 0.705063 -0.538283
vn -0.461668 0.705063 -0.538282
vn -0.461668 0.705063 -0.538282
vn -0.187238 -0.828683 0.527472
vn -0.187238 -0.828683 0.527472
vn -0.187238 -0.828683 0.527472
vn -0.187238 -0.828683 0.527472
vn -0.080629 0.044326 0.995758
vn -0.080629 0.044326 0.995758
vn -0.080629 0.044326 0.995758
vn -0.080629 0.044326 0.995758
vn 0.026179 -0.039102 -0.998892
vn 0.026179 -0.039102 -0.998892
vn 0.026179 -0.039102 -0.998892
vn 0.026179 -0.039102 -0.998892
vn -0.034475 0.827593 0.560269
vn -0.034475 0.827593 0.560269
vn -0.034475 0.827593 0.560269
vn -0.034475 0.827593 0.560269
vn -0.044933 -0.870831 -0.489525
vn -0.044933 -0.870831 -0.489525
vn -0.044933 -0.870831 -0.489525
vn -0.044933 -0.870831 -0.489525
vn 0.020865 0.814208 -0.580198
vn 0.020865 0.814208 -0.580198
vn 0.020865 0.814208 -0.580198
vn 0.020865 0.814208 -0.580198
vn -0.107818 -0.846954 0.520619
vn -0.107818 -0.846954 0.520619
vn -0.107818 -0.846954 0.520619
vn -0.107818 -0.846954 0.520619
vn -0.079001 0.052605 0.995486
vn -0.079001 0.052605 0.995486
vn -0.079001 0.052605 0.995486
vn -0.079001 0.052605 0.995486
vn -0.980975 -0.178708 0.075841
vn -0.980975 -0.178708 0.075841
vn -0.980975 -0.178708 0.075841
vn -0.980975 -0.178708 0.075841
vn -0.862591 0.099954 -0.495929
vn -0.862591 0.099954 -0.495929
vn -0.862591 0.099954 -0.495929
vn -0.862591 0.099954 -0.495929
vn -0.130786 0.046041 -0.990341
vn -0.130786 0.046041 -0.990341
vn -0.130786 0.046041 -0.990341
vn -0.130786 0.046041 -0.990341
vn -0.599855 -0.681174 0.419733
vn -0.599855 -0.681174 0.419733
vn -0.599855 -0.681174 0.419733
vn -0.599855 -0.681174 0.419733
vn -0.577265 0.035725 0.815775
vn -0.577265 0.035725 0.815775
vn -0.577265 0.035725 0.815775
vn -0.577265 0.035725 0.815775
vn -0.146681 0.834964 -0.530396
vn -0.146681 0.834964 -0.530396
vn -0.146681 0.834964 -0.530396
vn -0.146681 0.834964 -0.530396
vn -0.987991 0.115443 -0.102694
vn -0.987991 0.115443 -0.102694
vn -0.987991 0.115443 -0.102694
vn -0.987991 0.115443 -0.102694
vn -0.988292 0.114920 -0.100356
vn -0.988292 0.114920 -0.100356
vn -0.988292 0.114920 -0.100356
vn -0.988292 0.114920 -0.100356
vn -0.966992 0.112486 0.228633
vn -0.966992 0.112486 0.228633
vn -0.966992 0.112486 0.228633
vn -0.966992 0.112486 0.228633
vn -0.862913 0.417354 -0.284949
vn -0.862913 0.417354 -0.284949
vn -0.862913 0.417354 -0.284949
vn -0.862913 0.417354 -0.284949
vn -0.933155 -0.224113 -0.281060
vn -0.933155 -0.224113 -0.281060
vn -0.933155 -0.224113 -0.281060
vn -0.933155 -0.224113 -0.281060
vn -0.913154 0.400662 0.074960
vn -0.913154 0.400662 0.074960
vn -0.913154 0.400662 0.074960
vn -0.913154 0.400662 0.074960
vn 0.566757 -0.101480 -0.817612
vn 0.566757 -0.101480 -0.817612
vn 0.566757 -0.101480 -0.817612
vn 0.283827 -0.173082 -0.943125
vn 0.283827 -0.173082 -0.943125
vn 0.283827 -0.173082 -0.943125
vn 0.232214 -0.167675 -0.958103
vn 0.232214 -0.167675 -0.958103
vn 0.232214 -0.167675 -0.958103
vn -0.264574 -0.208055 -0.941655
vn -0.264574 -0.208055 -0.941655
vn -0.264574 -0.208055 -0.941655
vn -0.264574 -0.208055 -0.941655
vn -0.264577 0.245405 -0.932617
vn -0.264577 0.245405 -0.932617
vn -0.264577 0.245405 -0.932617
vn -0.264577 0.245405 -0.932617
vn 0.264577 0.245405 -0.932617
vn 0.264577 0.245405 -0.932617
vn 0.264577 0.245405 -0.932617
vn 0.264577 0.245405 -0.932617
vn 0.264574 -0.208055 -0.941655
vn 0.264574 -0.208055 -0.941655
vn 0.264574 -0.208055 -0.941655
vn 0.264574 -0.208055 -0.941655
vn 0.893915 -0.252808 -0.370142
vn 0.893915 -0.252808 -0.370142
vn 0.893915 -0.252808 -0.370142
vn 0.893915 -0.252808 -0.370142
vn 0.893914 0.267353 -0.359777
vn 0.893914 0.267353 -0.359777
vn 0.893914 0.267353 -0.359777
vn 0.893914 0.267353 -0.359777
vn 0.893913 0.252811 0.370143
vn 0.893913 0.252811 0.370143
vn 0.893913 0.252811 0.370143
vn 0.893913 0.252811 0.370143
vn 0.893914 -0.267355 0.359777
vn 0.893914 -0.267355 0.359777
vn 0.893914 -0.267355 0.359777
vn 0.893914 -0.267355 0.359777
vn 0.264578 -0.245411 0.932615
vn 0.264578 -0.245411 0.932615
vn 0.264578 -0.245411 0.932615
vn 0.264578 -0.245411 0.932615
vn 0.264578 0.208060 0.941653
vn 0.264578 0.208060 0.941653
vn 0.264578 0.208060 0.941653
vn 0.264578 0.208060 0.941653
vn -0.264578 0.208060 0.941653
vn -0.264578 0.208060 0.941653
vn -0.264578 0.208060 0.941653
vn -0.264578 0.208060 0.941653
vn -0.264579 -0.245411 0.932615
vn -0.264579 -0.245411 0.932615
vn -0.264579 -0.245411 0.932615
vn -0.264579 -0.245411 0.932615
vn -0.893914 -0.267355 0.359777
vn -0.893914 -0.267355 0.359777
vn -0.893914 -0.267355 0.359777
vn -0.893914 -0.267355 0.359777
vn -0.893913 0.252811 0.370143
vn -0.893913 0.252811 0.370143
vn -0.893913 0.252811 0.370143
vn -0.893913 0.252811 0.370143
vn -0.893914 0.267353 -0.359777
vn -0.893914 0.267353 -0.359777
vn -0.893914 0.267353 -0.359777
vn -0.893914 0.267353 -0.359777
vn -0.893915 -0.252808 -0.370142
vn -0.893915 -0.252808 -0.370142
vn -0.893915 -0.252808 -0.370142
vn -0.893915 -0.252808 -0.370142
vn 0.336705 -0.841833 -0.421838
vn 0.336705 -0.841833 -0.421838
vn 0.336705 -0.841833 -0.421838
vn 0.336705 -0.841833 -0.421838
vn 0.336706 -0.857972 0.387961
vn 0.336706 -0.857972 0.387961
vn 0.336706 -0.857972 0.387961
vn 0.336706 -0.857972 0.387961
vn -0.336706 -0.857972 0.387961
vn -0.336706 -0.857972 0.387961
vn -0.336706 -0.857972 0.387961
vn -0.336706 -0.857972 0.387961
vn -0.336705 -0.841833 -0.421838
vn -0.336705 -0.841833 -0.421838
vn -0.336705 -0.841833 -0.421838
vn -0.336705 -0.841833 -0.421838
vn 0.336710 0.841830 0.421839
vn 0.336710 0.841830 0.421839
vn 0.336710 0.841830 0.421839
vn 0.336710 0.841830 0.421839
vn 0.336702 0.857972 -0.387964
vn 0.336702 0.857972 -0.387964
vn 0.336702 0.857972 -0.387964
vn 0.336702 0.857972 -0.387964
vn -0.336702 0.857972 -0.387964
vn -0.336702 0.857972 -0.387964
vn -0.336702 0.857972 -0.387964
vn -0.336702 0.857972 -0.387964
vn -0.336710 0.841830 0.421839
vn -0.336710 0.841830 0.421839
vn -0.336710 0.841830 0.421839
vn -0.336710 0.841830 0.421839
s off
g Untitled:Untitled:Mesh Untitled:group2 Untitled:group
usemtl Untitled:Untitled:MeshSG
f 17/1/1 15/2/2 4/3/3 121/4/4 8/5/5
f 21/97/6 14/87/7 2/90/8 10/98/9
f 27/213/10 26/214/11 24/215/12 25/216/13
f 14/87/14 19/88/15 6/89/16 2/90/17
f 6/89/18 25/95/19 24/96/20 2/90/21
f 37/224/22 39/225/23 29/226/24 12/227/25
f 15/350/26 21/351/27 10/352/28 4/353/29
f 102/133/30 95/152/31 94/153/32 103/134/33
f 48/354/34 22/355/35 21/351/36 15/350/37
f 51/99/38 5/100/39 20/92/40 52/91/41
f 52/91/42 20/92/43 19/88/44 14/87/45
f 105/151/46 90/164/47 95/152/48 102/133/49
f 22/102/50 52/91/51 14/87/52 21/97/53
f 7/14/54 49/15/55 48/7/56 18/6/57
f 18/6/58 48/7/59 15/2/60 17/1/61
f 4/3/62 23/8/63 120/9/64 122/10/65 121/4/66
f 11/217/67 120/218/68 23/219/69 26/214/70 27/213/71
f 29/366/72 34/367/73 35/368/74 12/369/75
f 38/232/76 37/224/77 12/227/78 30/233/79
f 39/225/80 50/229/81 49/236/82 41/230/83
f 41/230/84 40/237/85 28/238/86 31/231/87
f 49/15/88 7/14/89 40/23/90 41/24/91
f 31/370/92 33/371/93 34/367/94 29/366/95
f 28/171/96 32/172/97 33/173/98 31/174/99
f 12/177/100 35/178/101 36/179/102 30/180/103
f 29/226/104 39/225/105 41/230/106 31/231/107
f 5/100/108 51/99/109 37/108/110 38/109/111
f 51/228/112 50/229/113 39/225/114 37/224/115
f 74/50/116 44/64/117 43/51/118 72/37/119
f 75/125/120 46/143/121 42/144/122 73/126/123
f 73/372/124 42/373/125 44/374/126 74/375/127
f 76/142/128 47/159/129 46/143/130 75/125/131
f 77/378/132 45/379/133 47/380/134 76/381/135
f 72/37/136 43/51/137 45/52/138 77/38/139
f 16/25/140 48/7/141 49/15/142 3/26/143
f 3/241/144 49/236/145 50/229/146 9/234/147
f 9/234/148 50/229/149 51/228/150 1/235/151
f 1/111/152 51/99/153 52/91/154 13/112/155
f 53/358/156 22/355/157 48/354/158 16/359/159
f 13/364/160 52/365/161 22/355/162 53/358/163
f 4/3/164 54/17/165 59/18/166 23/8/167
f 23/389/168 59/390/169 58/391/170 26/392/171
f 26/392/172 58/391/173 57/393/174 24/394/175
f 2/360/176 56/361/177 55/356/178 10/352/179
f 24/96/180 57/106/181 56/107/182 2/90/183
f 10/352/184 55/356/185 54/357/186 4/353/187
f 54/17/188 60/28/189 65/29/190 59/18/191
f 59/18/192 65/29/193 64/39/194 58/40/195
f 58/391/196 64/395/197 63/396/198 57/393/199
f 56/107/200 61/117/201 62/127/202 55/128/203
f 57/106/204 63/116/205 61/117/206 56/107/207
f 55/356/208 62/362/209 60/363/210 54/357/211
f 71/383/212 84/386/213 80/387/214 87/388/215 47/380/216
f 66/252/217 70/253/218 71/254/219 69/255/220 67/256/221 68/257/222
f 45/379/223 69/382/224 71/383/225 47/380/226
f 47/262/227 87/263/228 88/264/229 46/265/230
f 43/51/231 67/65/232 69/66/233 45/52/234
f 44/397/235 86/398/236 78/399/237 82/400/238 68/401/239
f 44/64/240 68/77/241 67/65/242 43/51/243
f 60/28/244 72/37/245 77/38/246 65/29/247
f 65/384/248 77/378/249 76/381/250 64/385/251
f 64/141/252 76/142/253 75/125/254 63/116/255
f 61/376/256 73/372/257 74/375/258 62/377/259
f 63/116/260 75/125/261 73/126/262 61/117/263
f 62/49/264 74/50/265 72/37/266 60/28/267
f 81/183/268 85/184/269 83/185/270 79/186/271
f 79/402/272 83/403/273 82/400/274 78/399/275
f 80/187/276 84/188/277 85/184/278 81/183/279
f 66/252/280 83/258/281 85/259/282 70/253/283
f 46/265/284 88/264/285 89/268/286 42/269/287
f 68/257/288 82/261/289 83/258/290 66/252/291
f 42/269/292 89/268/293 86/271/294 44/272/295
f 70/253/296 85/259/297 84/260/298 71/254/299
f 87/263/300 80/266/301 81/267/302 88/264/303
f 88/264/304 81/267/305 79/270/306 89/268/307
f 89/268/308 79/270/309 78/273/310 86/271/311
f 94/274/312 112/275/313 109/276/314 91/277/315
f 92/280/316 110/281/317 108/282/318 90/283/319
f 106/57/320 91/71/321 93/58/322 104/45/323
f 107/286/324 92/280/325 90/283/326 105/287/327
f 103/278/328 94/274/329 91/277/330 106/279/331
f 104/45/332 93/58/333 92/59/334 107/46/335
f 3/26/336 99/33/337 101/34/338 16/25/339
f 1/111/340 98/122/341 100/135/342 9/136/343
f 16/290/344 101/288/345 97/289/346 53/291/347
f 9/43/348 100/44/349 99/33/350 3/26/351
f 53/131/352 97/132/353 96/121/354 13/112/355
f 13/112/356 96/121/357 98/122/358 1/111/359
f 99/33/360 104/45/361 107/46/362 101/34/363
f 98/122/364 103/134/365 106/154/366 100/135/367
f 101/288/368 107/286/369 105/287/370 97/289/371
f 100/44/372 106/57/373 104/45/374 99/33/375
f 97/132/376 105/151/377 102/133/378 96/121/379
f 96/121/380 102/133/381 103/134/382 98/122/383
f 108/404/384 114/405/385 119/406/386 113/407/387
f 111/413/388 117/414/389 116/409/390 110/408/391
f 93/58/392 111/72/393 110/73/394 92/59/395
f 90/283/396 108/282/397 113/284/398 95/285/399
f 95/152/400 113/165/401 112/166/402 94/153/403
f 91/71/404 109/81/405 111/72/406 93/58/407
f 117/414/408 115/410/409 114/405/410 116/409/411
f 115/410/412 118/411/413 119/406/414 114/405/415
f 113/407/416 119/406/417 118/411/418 112/412/419
f 109/415/420 115/410/421 117/414/422 111/413/423
f 110/408/424 116/409/425 114/405/426 108/404/427
f 112/412/428 118/411/429 115/410/430 109/415/431
f 120/9/432 11/19/433 122/10/434
f 11/19/435 8/5/436 122/10/437
f 8/5/438 121/4/439 122/10/440
f 17/1/441 8/5/442 226/11/443 126/12/444 132/13/445
f 134/103/446 128/104/447 124/94/448 131/93/449
f 27/213/450 25/216/451 137/220/452 138/221/453
f 131/93/454 124/94/455 6/89/456 19/88/457
f 6/89/458 124/94/459 137/105/460 25/95/461
f 144/240/462 129/239/463 139/244/464 145/245/465
f 132/416/466 126/417/467 128/418/468 134/419/469
f 207/148/470 208/147/471 199/161/472 200/162/473
f 153/422/474 132/416/475 134/419/476 135/423/477
f 156/110/478 157/101/479 20/92/480 5/100/481
f 157/101/482 131/93/483 19/88/484 20/92/485
f 210/163/486 207/148/487 200/162/488 195/170/489
f 135/113/490 134/103/491 131/93/492 157/101/493
f 7/14/494 18/6/495 153/16/496 154/27/497
f 18/6/498 17/1/499 132/13/500 153/16/501
f 126/12/502 226/11/503 227/20/504 225/21/505 136/22/506
f 11/217/507 27/213/508 138/221/509 136/222/510 225/223/511
f 139/432/512 129/433/513 143/434/514 142/435/515
f 38/232/516 30/233/517 129/239/518 144/240/519
f 145/245/520 146/242/521 154/248/522 155/247/523
f 146/242/524 140/243/525 28/238/526 40/237/527
f 154/27/528 146/32/529 40/23/530 7/14/531
f 140/436/532 139/432/533 142/435/534 141/437/535
f 28/171/536 140/175/537 141/176/538 32/172/539
f 129/181/540 30/180/541 36/179/542 143/182/543
f 139/244/544 140/243/545 146/242/546 145/245/547
f 5/100/548 38/109/549 144/118/550 156/110/551
f 156/246/552 144/240/553 145/245/554 155/247/555
f 179/70/556 177/56/557 148/68/558 149/80/559
f 180/140/560 178/139/561 147/155/562 151/156/563
f 178/438/564 179/439/565 149/440/566 147/441/567
f 181/158/568 180/140/569 151/156/570 152/167/571
f 182/444/572 181/445/573 152/446/574 150/447/575
f 177/56/576 182/55/577 150/67/578 148/68/579
f 133/35/580 125/36/581 154/27/582 153/16/583
f 125/251/584 127/249/585 155/247/586 154/248/587
f 127/249/588 123/250/589 156/246/590 155/247/591
f 123/119/592 130/120/593 157/101/594 156/110/595
f 158/428/596 133/429/597 153/422/598 135/423/599
f 130/430/600 158/428/601 135/423/602 157/431/603
f 126/12/604 136/22/605 164/30/606 159/31/607
f 136/455/608 138/456/609 163/457/610 164/458/611
f 138/456/612 137/459/613 162/460/614 163/457/615
f 124/426/616 128/418/617 160/421/618 161/427/619
f 137/105/620 124/94/621 161/114/622 162/115/623
f 128/418/624 126/417/625 159/420/626 160/421/627
f 159/31/628 164/30/629 170/41/630 165/42/631
f 164/30/632 163/53/633 169/54/634 170/41/635
f 163/457/636 162/460/637 168/461/638 169/462/639
f 161/114/640 160/137/641 167/138/642 166/123/643
f 162/115/644 161/114/645 166/123/646 168/124/647
f 160/421/648 159/420/649 165/424/650 167/425/651
f 176/450/652 152/446/653 192/452/654 185/453/655 189/454/656
f 171/292/657 173/293/658 172/294/659 174/295/660 176/296/661 175/297/662
f 150/447/663 152/446/664 176/450/665 174/451/666
f 152/302/667 151/303/668 193/304/669 192/305/670
f 148/68/671 150/67/672 174/78/673 172/79/674
f 149/463/675 173/464/676 187/465/677 183/466/678 191/467/679
f 149/80/680 148/68/681 172/79/682 173/85/683
f 165/42/684 170/41/685 182/55/686 177/56/687
f 170/448/688 169/449/689 181/445/690 182/444/691
f 169/157/692 168/124/693 180/140/694 181/158/695
f 166/442/696 167/443/697 179/439/698 178/438/699
f 168/124/700 166/123/701 178/139/702 180/140/703
f 167/69/704 165/42/705 177/56/706 179/70/707
f 186/189/708 184/190/709 188/191/710 190/192/711
f 184/468/712 183/466/713 187/465/714 188/469/715
f 185/193/716 186/189/717 190/192/718 189/194/719
f 171/292/720 175/297/721 190/301/722 188/298/723
f 151/303/724 147/306/725 194/307/726 193/304/727
f 173/293/728 171/292/729 188/298/730 187/299/731
f 147/306/732 149/310/733 191/311/734 194/307/735
f 175/297/736 176/296/737 189/300/738 190/301/739
f 192/305/740 193/304/741 186/308/742 185/309/743
f 193/304/744 194/307/745 184/312/746 186/308/747
f 194/307/748 191/311/749 183/313/750 184/312/751
f 199/314/752 196/315/753 214/316/754 217/317/755
f 197/320/756 195/321/757 213/322/758 215/323/759
f 211/76/760 209/61/761 198/75/762 196/84/763
f 212/324/764 210/325/765 195/321/766 197/320/767
f 208/318/768 211/319/769 196/315/770 199/314/771
f 209/61/772 212/60/773 197/74/774 198/75/775
f 125/36/776 133/35/777 206/47/778 204/48/779
f 123/119/780 127/145/781 205/146/782 203/129/783
f 133/330/784 158/331/785 202/329/786 206/328/787
f 127/62/788 125/36/789 204/48/790 205/63/791
f 158/149/792 130/120/793 201/130/794 202/150/795
f 130/120/796 123/119/797 203/129/798 201/130/799
f 204/48/800 206/47/801 212/60/802 209/61/803
f 203/129/804 205/146/805 211/160/806 208/147/807
f 206/328/808 202/329/809 210/325/810 212/324/811
f 205/63/812 204/48/813 209/61/814 211/76/815
f 202/150/816 201/130/817 207/148/818 210/163/819
f 201/130/820 203/129/821 208/147/822 207/148/823
f 213/470/824 218/471/825 224/472/826 219/473/827
f 216/481/828 215/477/829 221/478/830 222/480/831
f 198/75/832 197/74/833 215/82/834 216/83/835
f 195/321/836 200/326/837 218/327/838 213/322/839
f 200/162/840 199/161/841 217/168/842 218/169/843
f 196/84/844 198/75/845 216/83/846 214/86/847
f 222/480/848 221/478/849 219/473/850 220/476/851
f 220/476/852 219/473/853 224/472/854 223/475/855
f 218/471/856 217/474/857 223/475/858 224/472/859
f 214/479/860 216/481/861 222/480/862 220/476/863
f 215/477/864 213/470/865 219/473/866 221/478/867
f 217/474/868 214/479/869 220/476/870 223/475/871
f 225/21/872 227/20/873 11/19/874
f 11/19/875 227/20/876 8/5/877
f 8/5/878 227/20/879 226/11/880
f 228/195/881 237/196/882 248/197/883 236/198/884
f 237/196/885 229/199/886 238/200/887 248/197/888
f 248/197/889 238/200/890 231/203/891 239/201/892
f 236/198/893 248/197/894 239/201/895 230/202/896
f 230/482/897 239/483/898 249/484/899 240/485/900
f 239/483/901 231/486/902 241/487/903 249/484/904
f 249/484/905 241/487/906 235/490/907 242/488/908
f 240/485/909 249/484/910 242/488/911 234/489/912
f 234/204/913 242/205/914 250/206/915 243/207/916
f 242/205/917 235/208/918 244/209/919 250/206/920
f 250/206/921 244/209/922 233/212/923 245/210/924
f 243/207/925 250/206/926 245/210/927 232/211/928
f 232/491/929 245/492/930 251/493/931 246/494/932
f 245/492/933 233/495/934 247/496/935 251/493/936
f 251/493/937 247/496/938 229/499/939 237/497/940
f 246/494/941 251/493/942 237/497/943 228/498/944
f 230/332/945 240/333/946 252/334/947 236/335/948
f 240/333/949 234/336/950 243/337/951 252/334/952
f 252/334/953 243/337/954 232/340/955 246/338/956
f 236/335/957 252/334/958 246/338/959 228/339/960
f 235/341/961 241/342/962 253/343/963 244/344/964
f 241/342/965 231/345/966 238/346/967 253/343/968
f 253/343/969 238/346/970 229/349/971 247/347/972
f 244/344/973 253/343/974 247/347/975 233/348/976
